<svg xmlns="http://www.w3.org/2000/svg" xmlns:xlink="http://www.w3.org/1999/xlink" width="728.642" height="748" viewBox="0 0 728.642 748">
  <defs>
    <clipPath id="clip-path">
      <rect x="123" width="728.642" height="748" fill="none"/>
    </clipPath>
    <clipPath id="clip-path-2">
      <rect x="-70.711" width="1115.064" height="669.642" fill="none"/>
    </clipPath>
  </defs>
  <g id="logo" transform="translate(-176.179 -175.5)">
    <g id="Scroll_Group_5" data-name="Scroll Group 5" transform="translate(53.179 175.5)" clip-path="url(#clip-path)" style="isolation: isolate">
      <g id="Group_3" data-name="Group 3" transform="translate(-53.179 -175.5)">
        <g id="Path_3" data-name="Path 3" transform="translate(176 175.5)" fill="#fff">
          <path d="M 364 678 C 190.85986328125 678 50 537.14013671875 50 364 C 50 190.85986328125 190.85986328125 50 364 50 C 537.14013671875 50 678 190.85986328125 678 364 C 678 537.14013671875 537.14013671875 678 364 678 Z" stroke="none"/>
          <path d="M 364 100 C 218.4299926757812 100 100 218.4299926757812 100 364 C 100 509.5700073242188 218.4299926757812 628 364 628 C 509.5700073242188 628 628 509.5700073242188 628 364 C 628 218.4299926757812 509.5700073242188 100 364 100 M 364 0 C 565.0316162109375 0 728 162.9683837890625 728 364 C 728 565.0316162109375 565.0316162109375 728 364 728 C 162.9683837890625 728 0 565.0316162109375 0 364 C 0 162.9683837890625 162.9683837890625 0 364 0 Z" stroke="none" fill="#fff"/>
        </g>
        <g id="Scroll_Group_3" data-name="Scroll Group 3" transform="translate(53.179 253.858)" clip-path="url(#clip-path-2)" style="isolation: isolate">
          <g id="staff" transform="translate(70.711 486.825) rotate(-45)" fill="#fff">
            <path d="M 36.79063415527344 638.4627685546875 C 13.60038471221924 638.4627685546875 -8.194615364074707 629.4391479492188 -24.57961463928223 613.0542602539062 C -40.96173858642578 596.700439453125 -50.00049209594727 574.9021606445312 -50.00049209594727 551.7054443359375 C -50.00049209594727 528.5250244140625 -40.97249221801758 506.7309265136719 -24.57936477661133 490.3380432128906 L 227.4032592773438 238.3306579589844 C 237.598876953125 228.1351623535156 244.2557525634766 214.6682891845703 246.1496276855469 200.4089202880859 L 259.5648803710938 99.78179168701172 C 270.9906311035156 14.38228988647461 344.5478820800781 -49.99996185302734 430.6685180664062 -49.99996185302734 L 465.8782653808594 -49.99996185302734 C 561.0482788085938 -49.99996185302734 638.474609375 27.42641448974609 638.474609375 122.5964126586914 C 638.474609375 217.7664184570312 561.0482788085938 295.1929016113281 465.8782653808594 295.1929016113281 L 453.6184997558594 295.1929016113281 C 435.0147094726562 295.1929016113281 417.7626037597656 289.3106384277344 403.6194458007812 279.3051452636719 C 391.5975036621094 309.7776794433594 373.4094543457031 337.7617492675781 350.1602478027344 361.0303039550781 L 98.16275787353516 613.0525512695312 C 81.77600860595703 629.4391479492188 59.98101043701172 638.4627685546875 36.79063415527344 638.4627685546875 Z M 431.4981079101562 123.5579147338867 L 431.3693237304688 124.525505065918 C 432.7023010253906 124.1717376708984 434.0475463867188 123.8488464355469 435.4046630859375 123.5579147338867 L 431.4981079101562 123.5579147338867 Z" stroke="none"/>
            <path d="M 430.66845703125 -6.103515625e-05 C 369.4928283691406 -6.103515625e-05 317.2422790527344 45.728515625 309.12646484375 106.3892211914062 L 295.7142944335938 206.9917907714844 C 292.3797302246094 232.099609375 280.6595458984375 255.7852478027344 262.7604675292969 273.684326171875 L 10.7757568359375 525.6934204101562 C -3.5926513671875 540.061767578125 -3.5926513671875 563.355224609375 10.7757568359375 577.6988525390625 C 25.14422607421875 592.0673828125 48.4376220703125 592.0670776367188 62.80572509765625 577.6988525390625 L 314.790283203125 325.6897888183594 C 344.0419311523438 296.4136047363281 363.1668090820312 257.7221374511719 368.6591796875 216.701416015625 L 382.0468139648438 116.1234130859375 C 385.2833862304688 91.873779296875 406.1983032226562 73.55780029296875 430.66845703125 73.55780029296875 L 465.8782958984375 73.55780029296875 C 492.9230041503906 73.55780029296875 514.9166259765625 95.55160522460938 514.9166259765625 122.5964965820312 C 514.9166259765625 149.6412353515625 492.9230041503906 171.6350402832031 465.8782958984375 171.6350402832031 L 453.61865234375 171.6350402832031 C 433.316650390625 171.6350402832031 416.8397216796875 188.08740234375 416.8397216796875 208.4139709472656 C 416.8397216796875 228.7403259277344 433.316650390625 245.19287109375 453.61865234375 245.19287109375 L 465.8782958984375 245.19287109375 C 533.4779052734375 245.19287109375 588.4746704101562 190.1961364746094 588.4746704101562 122.5964965820312 C 588.4746704101562 54.9967041015625 533.4779052734375 -6.103515625e-05 465.8782958984375 -6.103515625e-05 L 430.66845703125 -6.103515625e-05 M 430.66845703125 -100.0000610351562 L 465.8782958984375 -100.0000610351562 C 588.6182861328125 -100.0000610351562 688.4746704101562 -0.1436767578125 688.4746704101562 122.5964965820312 C 688.4746704101562 245.3365173339844 588.6182861328125 345.19287109375 465.8782958984375 345.19287109375 L 453.61865234375 345.19287109375 C 444.7481079101562 345.19287109375 436.0784912109375 344.3453063964844 427.6739501953125 342.7246704101562 C 415.8171997070312 362.1500244140625 401.6838989257812 380.2040405273438 385.5306396484375 396.370849609375 L 133.5199279785156 648.4061279296875 C 107.6875610351562 674.2383422851562 73.33645629882812 688.462890625 36.7906494140625 688.462890625 C 0.2449951171875 688.462890625 -34.1060791015625 674.2383422851562 -59.93499755859375 648.4096069335938 C -85.75006103515625 622.6390380859375 -100.0006103515625 588.2738037109375 -100.0006103515625 551.7054443359375 C -100.0006103515625 515.1696166992188 -85.771728515625 480.8193969726562 -59.93499755859375 454.982666015625 L 192.0462951660156 202.97705078125 C 194.411376953125 200.6121520996094 196.1490173339844 197.1070556640625 196.5846557617188 193.8265075683594 L 210.0035400390625 93.17431640625 C 224.7401123046875 -16.97296142578125 319.6028137207031 -100.0000610351562 430.66845703125 -100.0000610351562 Z" stroke="none" fill="#222"/>
          </g>
        </g>
      </g>
    </g>
  </g>
</svg>
